{"title":"In Search Of Myths And Heroes (DVDRip)","uid":5888806,"size":1467631169,"categoryP":"video","categoryS":"tv_shows","magnet":"?xt=urn:btih:68db6dd45cbefe714dc4d4769b79d3b0a4eb13a4&amp;dn=In+Search+Of+Myths+And+Heroes+%28DVDRip%29&amp;tr=udp%3A%2F%2Ftracker.openbittorrent.com%3A80&amp;tr=udp%3A%2F%2Fopen.demonii.com%3A1337&amp;tr=udp%3A%2F%2Ftracker.coppersurfer.tk%3A6969&amp;tr=udp%3A%2F%2Fexodus.desync.com%3A6969","seeders":0,"leechers":1,"uploader":"AnoNunga","files":5,"time":1287154714,"description":"Title: In Search Of Myths And Heroes\n\nGenre: Documentary\n\nDescription: Michael Wood explores four of the world\\'s most famous myths: Shangri-La, the Golden Fleece, the Queen of Sheba and King Arthur.\n\nMedia Info:\n\nVideo\nID : 1\nFormat : AVC\nFormat/Info : Advanced Video Codec\nFormat profile : &lt;a class=&quot;__cf_email__&quot; href=&quot;/cdn-cgi/l/email-protection&quot; data-cfemail=&quot;286549414668641b0618&quot;&gt;[email&amp;#160;protected]&lt;/a&gt;&lt;script cf-hash='f9e31' type=&quot;text/javascript&quot;&gt;\n/* &lt;![CDATA[ */!function(){try{var t=&quot;currentScript&quot;in document?document.currentScript:function(){for(var t=document.getElementsByTagName(&quot;script&quot;),e=t.length;e--;)if(t[e].getAttribute(&quot;cf-hash&quot;))return t[e]}();if(t&amp;&amp;t.previousSibling){var e,r,n,i,c=t.previousSibling,a=c.getAttribute(&quot;data-cfemail&quot;);if(a){for(e=&quot;&quot;,r=parseInt(a.substr(0,2),16),n=2;a.length-n;n+=2)i=parseInt(a.substr(n,2),16)^r,e+=String.fromCharCode(i);e=document.createTextNode(e),c.parentNode.replaceChild(e,c)}}}catch(u){}}();/* ]]&gt; */&lt;/script&gt;\nFormat settings, CABAC : Yes\nFormat settings, ReFrames : 2 frames\nCodec ID : avc1\nCodec ID/Info : Advanced Video Coding\nDuration : 59mn 0s\nBit rate mode : Variable\nBit rate : 665 Kbps\nWidth : 718 pixels\nHeight : 572 pixels\nDisplay aspect ratio : 16:9\nFrame rate mode : Variable\nFrame rate : 25.000 fps\nMinimum frame rate : 12.500 fps\nMaximum frame rate : 25.000 fps\nColor space : YUV\nChroma subsampling : 4:2:0\nBit depth : 8 bits\nScan type : Progressive\nBits/(Pixel*Frame) : 0.065\nStream size : 281 MiB (80%)\nWriting library : x264 core 79\nEncoding settings : cabac=1 / ref=2 / deblock=1:0:0 / analyse=0x1:0x111 / me=hex / subme=6 / psy=1 / psy_rd=1.0:0.0 / mixed_ref=0 / me_range=16 / chroma_me=1 / trellis=0 / 8x8dct=0 / cqm=0 / deadzone=21,11 / chroma_qp_offset=-2 / threads=3 / nr=0 / decimate=1 / mbaff=0 / constrained_intra=0 / bframes=2 / b_pyramid=0 / b_adapt=1 / b_bias=0 / direct=1 / wpredb=0 / wpredp=2 / keyint=250 / keyint_min=25 / scenecut=40 / rc_lookahead=40 / rc=2pass / mbtree=1 / bitrate=665 / ratetol=1.0 / qcomp=0.60 / qpmin=10 / qpmax=51 / qpstep=4 / cplxblur=20.0 / qblur=0.5 / ip_ratio=1.40 / aq=1:1.00\nEncoded date : UTC 2010-10-11 09:41:02\nTagged date : UTC 2010-10-11 10:12:34\nColor primaries : BT.601-6 525, BT.1358 525, BT.1700 NTSC, SMPTE 170M\nTransfer characteristics : BT.709-5, BT.1361\nMatrix coefficients : BT.601-6 525, BT.1358 525, BT.1700 NTSC, SMPTE 170M\n\nAudio\nID : 2\nFormat : AAC\nFormat/Info : Advanced Audio Codec\nFormat version : Version 4\nFormat profile : LC\nFormat settings, SBR : No\nCodec ID : 40\nDuration : 59mn 0s\nBit rate mode : Variable\nBit rate : 160 Kbps\nMaximum bit rate : 239 Kbps\nChannel(s) : 2 channels\nChannel positions : Front: L R\nSampling rate : 48.0 KHz\nStream size : 67.5 MiB (19%)\nLanguage : English\nEncoded date : UTC 2010-10-11 09:41:02\nTagged date : UTC 2010-10-11 10:12:34\n\nScreens:\nDue to technical difficulties will add screens at later date.\n\nNote: Media Info and Screens taken from episode 1. All episodes ripped with same settings.","torrent":{"xt":"urn:btih:68db6dd45cbefe714dc4d4769b79d3b0a4eb13a4","amp;dn":"In+Search+Of+Myths+And+Heroes+%28DVDRip%29","amp;tr":["udp%3A%2F%2Ftracker.openbittorrent.com%3A80","udp%3A%2F%2Fopen.demonii.com%3A1337","udp%3A%2F%2Ftracker.coppersurfer.tk%3A6969","udp%3A%2F%2Fexodus.desync.com%3A6969"],"infoHash":"68db6dd45cbefe714dc4d4769b79d3b0a4eb13a4","infoHashBuffer":{"type":"Buffer","data":[104,219,109,212,92,190,254,113,77,196,212,118,155,121,211,176,164,235,19,164]},"announce":[],"urlList":[]}}